Coordinates
version=1
nRows=17
nColumns=40
inDegrees=yes

Units are S.I. units (second, meters, Newtons, ...)
Angles are in degrees.

endheader
time	pelvis_tilt	pelvis_list	pelvis_rotation	pelvis_tx	pelvis_ty	pelvis_tz	hip_flexion_r	hip_adduction_r	hip_rotation_r	knee_angle_r	knee_angle_r_beta	ankle_angle_r	subtalar_angle_r	mtp_angle_r	hip_flexion_l	hip_adduction_l	hip_rotation_l	knee_angle_l	knee_angle_l_beta	ankle_angle_l	subtalar_angle_l	mtp_angle_l	lumbar_extension	lumbar_bending	lumbar_rotation	arm_flex_r	arm_add_r	arm_rot_r	elbow_flex_r	pro_sup_r	wrist_flex_r	wrist_dev_r	arm_flex_l	arm_add_l	arm_rot_l	elbow_flex_l	pro_sup_l	wrist_flex_l	wrist_dev_l
     49.82000000	     -2.30961384	     -3.34205987	    -10.48015474	      0.95567867	      0.92979508	      0.42381958	     24.68920526	     -2.15459656	     -4.20475981	     18.54380190	     18.54380190	      4.47272004	      6.17642921	      4.35642145	      7.19071315	     -1.52967273	     -9.62849289	     20.48630492	     20.48630492	     17.50833055	    -14.35132291	      0.94529948	     -9.59769610	      7.03973326	      1.65484392	    -20.65029305	    -11.74636480	    -10.70988973	     28.32797080	     46.25369046	      0.00000000	      0.00000000	     37.72452330	    -23.00243580	     -5.23058524	     64.56413241	     47.64861983	      0.00000000	      0.00000000
     49.84185714	     -2.41419345	     -3.11815380	    -10.83301304	      0.95707633	      0.92927389	      0.42656229	     24.33602726	     -2.28844921	     -5.02049848	     17.31679803	     17.31679803	      4.59465029	      9.21224400	      5.15494424	      6.45929682	     -1.40351899	    -10.22702318	     19.69927749	     19.69927749	     17.32270286	    -13.96310611	     -0.22025025	     -9.50620194	      6.82866392	      1.68674562	    -20.93528683	    -11.70609332	    -10.55032918	     28.97914659	     46.20984490	      0.00000000	      0.00000000	     38.26814429	    -23.34326599	     -6.39089795	     65.91684667	     47.75414375	      0.00000000	      0.00000000
     49.86371429	     -2.59711629	     -2.96111681	    -11.11403609	      0.95872737	      0.92874789	      0.42957762	     23.90482525	     -2.14408741	     -5.04246112	     16.19626157	     16.19626157	      4.35655400	     10.53826444	      5.35818891	      5.85035610	     -1.35018821	    -10.59226876	     19.04315914	     19.04315914	     17.41641259	    -13.65941884	     -0.56740508	     -9.29439491	      6.69585637	      1.79279203	    -20.84866102	    -11.57178223	    -10.42290332	     29.14439751	     46.19365550	      0.00000000	      0.00000000	     38.89348361	    -23.62263233	     -6.86292557	     66.51647907	     47.80078249	      0.00000000	      0.00000000
     49.88557143	     -2.77862383	     -2.77606405	    -11.34108964	      0.96071297	      0.92812764	      0.43281514	     23.55705139	     -2.05538201	     -5.12694836	     15.58765204	     15.58765204	      4.17775726	     11.66390286	      5.11907933	      5.22640239	     -1.28247583	    -10.96179520	     18.39225560	     18.39225560	     17.52289451	    -13.27009098	     -0.92458817	     -9.03558939	      6.52140411	      1.91479114	    -20.64168117	    -11.44928143	    -10.28028387	     29.28544543	     46.17871047	      0.00000000	      0.00000000	     39.40821699	    -23.79452009	     -7.39308731	     67.13144664	     47.85068418	      0.00000000	      0.00000000
     49.90742857	     -2.95016629	     -2.66235791	    -11.48689263	      0.96308140	      0.92743124	      0.43620700	     23.11524268	     -1.89038187	     -5.16706231	     15.07881284	     15.07881284	      3.10947209	     12.42146180	      1.91910078	      4.55299012	     -1.30154082	    -11.28754395	     17.69476251	     17.69476251	     17.20034017	    -13.00144212	     -2.35884859	     -8.82273261	      6.46462261	      1.54437749	    -20.06852210	    -11.59783668	     -9.33535347	     29.36420879	     46.11488592	      0.00000000	      0.00000000	     39.08475047	    -23.92707597	     -9.54623467	     68.72362546	     48.00944052	      0.00000000	      0.00000000
     49.92928571	     -3.26488644	     -2.61908752	    -11.54340960	      0.96551989	      0.92667590	      0.43976915	     22.96061393	     -1.62397808	     -5.00219522	     15.11063031	     15.11063031	      3.16571248	     12.58644004	      1.77297745	      4.20603132	     -1.43300343	    -11.33758711	     17.38186588	     17.38186588	     17.39397199	    -12.90920604	     -2.36728085	     -8.43906460	      6.53206632	      1.67232665	    -19.74812198	    -11.52670455	     -9.28206763	     29.46114521	     46.10968573	      0.00000000	      0.00000000	     39.43847491	    -24.02492054	     -9.61151779	     68.89708649	     48.01892110	      0.00000000	      0.00000000
     49.95114286	     -3.36054093	     -2.55956237	    -11.55150400	      0.96842418	      0.92645939	      0.44357282	     22.55430353	     -1.41884426	     -4.83883771	     15.23393706	     15.23393706	      3.12783009	     12.55698825	      1.15645306	      3.30757685	     -1.48128347	    -11.54146392	     16.50976860	     16.50976860	     17.52692075	    -12.29137492	     -2.29903636	     -8.29660755	      6.49315356	      1.83942706	    -19.35991049	    -11.49340162	     -9.13500750	     29.47109432	     46.10269193	      0.00000000	      0.00000000	     39.68243259	    -23.92831886	     -9.85576256	     69.24119691	     48.04115167	      0.00000000	      0.00000000
     49.97300000	     -3.46791599	     -2.56607298	    -11.49322633	      0.97153340	      0.92618511	      0.44759400	     21.94079394	     -1.07043737	     -4.40699712	     14.92917758	     14.92917758	      1.79255684	     11.80841296	     -3.31993600	      2.59826865	     -1.69836548	    -11.87983892	     16.05351607	     16.05351607	     17.83408202	    -11.42544602	     -2.21372406	     -8.13468983	      6.50389477	      1.48814918	    -18.49541563	    -11.69485547	     -8.04293243	     28.85071905	     46.06766136	      0.00000000	      0.00000000	     39.15450453	    -23.83223824	    -11.67576173	     70.42975321	     48.15733611	      0.00000000	      0.00000000
     49.99485714	     -3.70102870	     -2.68380030	    -11.28598632	      0.97455220	      0.92596414	      0.45161726	     21.69679238	     -0.72365616	     -4.43842683	     15.24564834	     15.24564834	      2.01075862	     11.52799185	     -3.52764616	      2.09537206	     -2.03192616	    -11.77116235	     15.68833228	     15.68833228	     17.91377910	    -11.19400536	     -2.13297338	     -7.87364275	      6.67910211	      1.54644675	    -18.12515101	    -11.73896374	     -7.99569133	     28.95883533	     46.06345921	      0.00000000	      0.00000000	     39.19500450	    -23.67821105	    -11.64546226	     70.51616389	     48.15543673	      0.00000000	      0.00000000
     50.01671429	     -3.74714180	     -2.75880652	    -11.08898138	      0.97777776	      0.92619312	      0.45592142	     21.28135452	     -0.34732587	     -3.90123333	     15.57745663	     15.57745663	      2.19399355	     10.33358525	     -4.04180034	      1.23425265	     -2.30373649	    -11.93002991	     15.03955958	     15.03955958	     18.01846382	    -10.41125738	     -1.86248782	     -7.81582175	      6.71038569	      1.58301773	    -17.74055406	    -11.82861957	     -7.77853604	     28.93117177	     46.05519886	      0.00000000	      0.00000000	     39.06816311	    -23.47094216	    -11.95034466	     70.80136296	     48.17310771	      0.00000000	      0.00000000
     50.03857143	     -3.91699191	     -2.94741331	    -10.72572243	      0.98084270	      0.92634897	      0.46015987	     20.97595486	      0.03699765	     -4.01396533	     15.89611684	     15.89611684	      2.47640620	      9.83107746	     -4.27466935	      0.74601185	     -2.77200160	    -11.79109352	     14.81718454	     14.81718454	     18.02053012	    -10.07067616	     -1.74010715	     -7.63366652	      6.90082507	      1.56383570	    -17.40219213	    -11.94284580	     -7.73522084	     29.00113771	     46.05299836	      0.00000000	      0.00000000	     38.90798108	    -23.21420224	    -11.96771524	     70.84731646	     48.17183534	      0.00000000	      0.00000000
     50.06042857	     -3.96822151	     -3.14549469	    -10.36532516	      0.98392269	      0.92686383	      0.46473900	     20.49502170	      0.56449481	     -3.44778220	     16.07146606	     16.07146606	      2.67409030	      8.21786704	     -4.58448949	      0.07340180	     -3.31100179	    -12.07871201	     14.51420808	     14.51420808	     18.20756997	     -8.94042874	     -1.37542959	     -7.59748151	      6.99523350	      1.41716804	    -16.93731995	    -12.09169425	     -7.50285966	     28.93144565	     46.04705414	      0.00000000	      0.00000000	     38.55327960	    -22.95625931	    -12.41382215	     71.09546301	     48.19511257	      0.00000000	      0.00000000
     50.08228571	     -4.04779996	     -3.37865361	     -9.91745299	      0.98686148	      0.92741335	      0.46924714	     20.02841987	      1.04690389	     -3.34464480	     16.19497818	     16.19497818	      2.91057093	      7.17140604	     -4.76297314	     -0.40282180	     -3.93601949	    -12.25174346	     14.48117900	     14.48117900	     18.38008278	     -7.97072969	     -0.98044457	     -7.52547096	      7.13286762	      1.23511880	    -16.50047256	    -12.27183406	     -7.27596671	     28.86461926	     46.04153797	      0.00000000	      0.00000000	     38.13366485	    -22.69760834	    -12.64862992	     71.21437244	     48.20044917	      0.00000000	      0.00000000
     50.10414286	     -4.20156564	     -3.46711547	     -9.40605780	      0.98955506	      0.92787112	      0.47355231	     19.68995342	      1.28946566	     -3.67757158	     16.32178040	     16.32178040	      3.29802596	      6.86022523	     -4.89415784	     -0.68237276	     -4.37502682	    -12.04547433	     14.49278448	     14.49278448	     18.18438718	     -7.72875266	     -0.86486868	     -7.35069824	      7.11747612	      1.18137123	    -16.22151363	    -12.37843383	     -7.26746627	     28.94516065	     46.04045636	      0.00000000	      0.00000000	     37.82948506	    -22.32525119	    -12.52693776	     71.15295506	     48.18767058	      0.00000000	      0.00000000
     50.12600000	     -4.30368625	     -3.58013007	     -8.88964401	      0.99211962	      0.92846138	      0.47795170	     19.29750303	      1.56517509	     -4.00230124	     16.42522151	     16.42522151	      3.64353003	      6.49289841	     -4.98391355	     -0.99300010	     -4.85632137	    -11.82772253	     14.52724462	     14.52724462	     17.98167147	     -7.41835169	     -0.75392830	     -7.21787758	      7.07759013	      1.15113838	    -15.93596803	    -12.50585531	     -7.26258888	     29.02449301	     46.03977514	      0.00000000	      0.00000000	     37.42841068	    -21.93858282	    -12.39594050	     71.04502502	     48.17280200	      0.00000000	      0.00000000
     50.14785714	     -4.25449622	     -4.00479360	     -8.36613465	      0.99463208	      0.92945424	      0.48270940	     18.42138197	      2.32977275	     -3.73026734	     15.98214669	     15.98214669	      3.76580618	      5.13285639	     -4.59483054	     -1.38327067	     -5.86457882	    -12.39560986	     14.88619776	     14.88619776	     18.35669899	     -5.66231472	     -0.45154581	     -7.29747450	      7.35058187	      0.92863326	    -15.41111841	    -12.73127063	     -7.06412123	     28.95290396	     46.03709689	      0.00000000	      0.00000000	     36.72629923	    -21.73053919	    -12.32146179	     70.78138543	     48.14969558	      0.00000000	      0.00000000
     50.16971429	     -4.32438519	     -4.05104564	     -7.87203345	      0.99677563	      0.93004116	      0.48709720	     18.02056103	      2.54938791	     -4.05157731	     16.04677036	     16.04677036	      4.14938951	      4.89950712	     -4.70248187	     -1.57645193	     -6.30859033	    -12.17884375	     15.09355591	     15.09355591	     18.17794513	     -5.38564776	     -0.34203921	     -7.16529904	      7.17466971	      0.95234908	    -15.09534810	    -12.84392228	     -7.04461204	     29.02733116	     46.03596987	      0.00000000	      0.00000000	     36.15622115	    -21.25166251	    -12.14562163	     70.62427569	     48.12924534	      0.00000000	      0.00000000
